<?xml version="1.0" encoding="UTF-8" standalone="no"?>
<!-- Created with Inkscape (http://www.inkscape.org/) -->

<svg
   version="1.1"
   id="svg1"
   width="1536"
   height="1024"
   viewBox="0 0 1536 1024"
   sodipodi:docname="Eye_full.svg"
   inkscape:version="1.4.2 (f4327f4, 2025-05-13)"
   xmlns:inkscape="http://www.inkscape.org/namespaces/inkscape"
   xmlns:sodipodi="http://sodipodi.sourceforge.net/DTD/sodipodi-0.dtd"
   xmlns="http://www.w3.org/2000/svg"
   xmlns:svg="http://www.w3.org/2000/svg">
  <defs
     id="defs1">
    <rect
       x="173.73779"
       y="779.18766"
       width="1177.5561"
       height="184.26735"
       id="rect1" />
  </defs>
  <sodipodi:namedview
     id="namedview1"
     pagecolor="#ffffff"
     bordercolor="#000000"
     borderopacity="0.25"
     inkscape:showpageshadow="2"
     inkscape:pageopacity="0.0"
     inkscape:pagecheckerboard="0"
     inkscape:deskcolor="#d1d1d1"
     inkscape:zoom="0.56982422"
     inkscape:cx="42.995715"
     inkscape:cy="572.10625"
     inkscape:window-width="2513"
     inkscape:window-height="1324"
     inkscape:window-x="0"
     inkscape:window-y="2"
     inkscape:window-maximized="0"
     inkscape:current-layer="layer1"
     showguides="true" />
  <g
     inkscape:groupmode="layer"
     inkscape:label="Image"
     id="g1"
     style="display:inline">
    <path
       style="display:inline;fill:#000000"
       d="M 762.48505,755.75 C 761.60047,754.5125 758.1512,749.225 754.82,744 742.36702,724.46743 730.57365,711.52374 717.02059,702.51369 698.28206,690.05634 686.32677,685.49473 650.1896,677.01398 612.92907,668.2696 578.66432,655.70246 542.9862,637.69546 c -19.34674,-9.76444 -28.43331,-14.71285 -55.86958,-30.42572 -4.83696,-2.77015 -4.72373,-2.34223 1.56361,5.90911 2.37994,3.12336 11.01873,16.21625 19.19731,29.0953 8.17859,12.87906 18.11306,28.24994 22.07661,34.15752 3.96356,5.90758 7.05123,10.89628 6.86151,11.086 -0.18972,0.18973 -5.87892,-3.88092 -12.64265,-9.04588 -6.76373,-5.16497 -20.48214,-14.91753 -30.48535,-21.67237 C 483.68445,650.04459 465.825,637.28259 454,628.43943 348.26746,549.36883 307.65078,523.22817 266.22937,507.59138 245.33178,499.70244 220.87835,495.02221 208,496.44668 c -8.06956,0.89256 -4.0305,-0.92884 5.29369,-2.38718 15.93056,-2.49159 44.91034,-10.95815 58.32021,-17.03847 10.30667,-4.67327 32.16673,-16.85635 41.8861,-23.34401 25.60633,-17.0922 73.0958,-57.2393 112.53296,-95.13419 27.61947,-26.53934 61.74801,-53.36685 78.89881,-62.02018 6.78556,-3.42361 23.14297,-9.78125 23.70917,-9.21505 0.23181,0.23182 -0.7484,1.18801 -2.17825,2.12489 -4.46783,2.92743 -17.51416,15.76962 -23.03998,22.67945 C 491.1893,327.40938 478.1163,351.14661 470.16471,372.5 466.56708,382.16115 458,410.01448 458,412.04995 c 0,0.41145 8.04195,-4.11265 17.87099,-10.05356 28.20381,-17.04703 44.25942,-26.06187 63.62901,-35.72616 95.04863,-47.42369 190.12799,-65.69267 279.5,-53.70439 82.36397,11.04823 163.33703,42.0184 251.7819,96.30031 4.52,2.77406 8.2136,4.50152 8.2081,3.8388 -0.021,-2.556 -10.0038,-35.84284 -13.1397,-43.81422 -11.6953,-29.72901 -34.363,-63.96294 -52.6572,-79.52554 -3.4688,-2.95085 -5.6422,-5.36519 -4.8297,-5.36519 2.9819,0 19.3494,6.28349 26.6366,10.22582 21.4566,11.60783 41.559,27.38426 79.5,62.39163 36.84,33.99153 73.8546,67.00429 86.5,77.14806 21.6665,17.38021 55.2792,38.07827 73.5,45.25988 9.1224,3.59554 35.2577,11.26043 44.6792,13.10336 3.4764,0.68004 6.6808,1.5368 7.1209,1.90393 0.44,0.36712 -3.385,0.92532 -8.5,1.24044 -11.9997,0.73925 -24.1229,3.50235 -40.86,9.31269 -40.3619,14.01178 -77.9195,35.58743 -134.4401,77.23145 -22.3685,16.48095 -72.7494,54.359 -83.5,62.77799 C 1033.0239,664.93771 985.27746,699 982.7388,699 c -0.91674,0 -0.96245,0.0729 24.9474,-39.79867 21.5703,-33.19355 28.3671,-42.95638 36.5162,-52.45133 2.7142,-3.1625 4.6863,-5.75 4.3825,-5.75 -0.3039,0 -7.4223,4.11362 -15.8187,9.14138 -55.77494,33.39798 -89.51326,48.90322 -131.2662,60.32647 -45.27568,12.38704 -53.71746,15.37086 -75.31982,26.62241 -31.21507,16.25832 -44.56372,28.26412 -55.75807,50.14892 C 767.39475,753.15763 764.73232,758 764.50559,758 c -0.22672,0 -1.13597,-1.0125 -2.02054,-2.25 z"
       id="path1" />
    <path
       id="path3"
       style="display:inline;fill:#ffffff;fill-opacity:1"
       d="m 765.89844,317.54688 c -15.66272,-2e-5 -31.20762,0.59702 -39.89844,1.79296 -39.7908,5.47558 -68.98806,13.23866 -106.15234,28.22461 -39.94444,16.10701 -70.8988,33.33967 -135.64649,75.51563 -38.65127,25.17703 -43.51701,28.27826 -60.53906,38.57031 -17.15316,10.37133 -38.87982,21.93125 -47.66211,25.35938 -3.025,1.1808 -6.95891,2.83497 -8.74219,3.67773 -1.78414,0.84317 -4.81985,1.34839 -6.75,1.12305 -1.92922,-0.22522 -3.50781,-0.1472 -3.50781,0.17187 0,0.31907 7.3125,5.05566 16.25,10.52735 8.9375,5.47168 28.625,18.25879 43.75,28.41601 55.78158,37.4602 80.88519,54.00575 96.5,63.60156 63.75005,39.1765 115.38982,61.00107 177.16602,74.87305 36.98164,8.30431 70.1253,11.05615 103.62304,8.60547 18.16304,-1.3288 44.86679,-5.487 64.02149,-9.96875 24.98781,-5.84658 56.54518,-17.64748 84.68945,-31.66992 35.76693,-17.8203 51.14517,-27.63978 124.5,-79.4961 61.9408,-43.7875 88.2464,-61.08526 101.1348,-66.50195 l 3.8652,-1.62305 -5.2695,-1.35742 c -10.6287,-2.73741 -33.1045,-13.05146 -54.3711,-24.94922 -17.6246,-9.86021 -42.8148,-25.82711 -81.8731,-51.89843 C 981.22518,377.32556 954.81427,362.601 920.69727,349.05469 880.39793,333.05364 849.05133,324.89648 806.5,319.33984 c -9.15831,-1.19596 -24.93884,-1.79295 -40.60156,-1.79296 z m 14.74804,11.18945 c 36.03117,1.39778 72.40612,8.27179 110.93555,20.69336 42.51598,13.70679 76.33527,31.46561 150.91797,79.25 49.5064,31.71823 78.8393,47.22231 106.8535,56.47656 l 9.6289,3.18164 -8.2422,3.10352 c -19.5117,7.34942 -40.6566,20.66153 -80.0312,50.38281 -68.2957,51.55204 -117.1063,81.58355 -163.76564,100.75976 -30.51203,12.53994 -56.01512,19.02989 -97.94336,24.92383 -9.63247,1.35406 -59.38299,1.38936 -71,0.0508 -30.9229,-3.56302 -42.97172,-5.88262 -73.56836,-14.16211 C 620.50874,641.51087 575.71221,621.8144 527.5,593.18945 505.87482,580.34997 453.594,546.04926 436.38477,533.41016 411.90095,515.42834 384.06102,498.70351 371.08398,494.17969 369.38829,493.58857 368,492.71841 368,492.24805 c 0,-0.47035 3.2625,-1.89737 7.25,-3.17188 30.07457,-9.61266 61.15197,-25.6292 109.75,-56.5625 88.78064,-56.51007 131.66399,-77.54425 186.76953,-91.61133 37.15751,-9.48539 72.84579,-13.56379 108.87695,-12.16601 z" />
    <path
       style="display:inline;fill:#ffffff;fill-opacity:1"
       d="m 327.5333,466.95534 c 35.17204,-13.79078 64.45576,-29.87126 99.24715,-54.49926 l 12.28044,-8.69304 8.42035,-16.63152 C 460.0793,362.24835 470.64398,344.57655 485.22296,324 c 4.96334,-7.00519 -14.5442,12.98727 -36.70234,37.61468 C 425.44711,387.25947 413.03868,399.95132 397,414.31205 369.71198,438.74523 350.40361,452.23196 323.59868,465.58224 314.30296,470.21201 307.34295,474 308.13199,474 c 0.78904,0 9.51963,-3.17009 19.40131,-7.04466 z"
       id="path15" />
    <path
       style="display:inline;fill:#ffffff;fill-opacity:1"
       d="m 1239,475.51116 c 0,-0.26886 -3.7125,-2.35223 -8.25,-4.62971 -40.8916,-20.52448 -57.51,-34.14949 -127.25,-104.32935 -32.6933,-32.89951 -54.9091,-53.84505 -60.5,-57.04077 -0.825,-0.47156 0.7812,1.58298 3.5694,4.56564 12.2745,13.13067 23.932,31.07738 39.2028,60.35237 16.0289,30.72845 13.8108,28.12757 37.3626,43.80967 38.2334,25.45792 61.3346,37.13728 109.8652,55.54511 6.5596,2.48806 6,2.327 6,1.72704 z"
       id="path14" />
    <path
       style="display:inline;fill:#ffffff;fill-opacity:1"
       d="m 498.91667,651.58061 c -0.22917,-0.23066 -9.63395,-9.96578 -20.89952,-21.6336 C 447.15074,597.97847 428.05646,582.09401 391,557.55778 360.27764,537.21555 336.9349,524.10786 315.35469,515.08055 308.67478,512.28625 302.87097,510 302.45735,510 c -0.41362,0 6.17677,3.5159 14.64531,7.81311 23.41568,11.88188 44.73558,25.15927 82.89734,51.62597 37.33499,25.89329 52.58623,38.38023 85.5,70.00308 7.15,6.86957 13.1875,12.50536 13.41667,12.52398 0.22916,0.0186 0.22916,-0.15487 0,-0.38553 z"
       id="path13" />
    <path
       style="display:inline;fill:#ffffff;fill-opacity:1"
       d="M 617.91886,593.75 C 595.24462,566.77838 582.82394,529.52702 584.32592,493 c 1.68546,-40.98933 15.582,-73.9606 43.53799,-103.29925 9.56209,-10.03502 9.5875,-10.07494 3.30893,-5.19857 -14.91359,11.5829 -30.9378,31.09757 -39.41274,47.99782 -17.45753,34.8128 -19.79705,70.38057 -7.13674,108.5 6.27634,18.89767 17.36817,37.55099 30.7355,51.6884 4.32237,4.57138 8.03796,8.3116 8.25686,8.3116 0.2189,0 -2.34469,-3.2625 -5.69686,-7.25 z"
       id="path8" />
    <path
       style="display:inline;fill:#ffffff;fill-opacity:1"
       d="m 1066.2047,617.70425 c 13.8607,-12.31924 42.3518,-34.90782 57.9475,-45.94242 45.2212,-31.99608 71.97,-47.25407 105.8478,-60.37746 11.6229,-4.50242 8.6976,-4.20881 -6.7016,0.67263 -25.3332,8.03045 -43.7133,16.54785 -70.7984,32.80818 -41.5246,24.92903 -81.8187,58.70117 -112.9104,94.63482 -17.0858,19.74667 -16.989,19.98615 0.976,2.41486 8.7639,-8.57182 20.3015,-19.4666 25.6391,-24.21061 z"
       id="path12" />
    <path
       style="display:inline;fill:#ffffff;fill-opacity:1"
       d="m 910.76887,595.0369 c 19.66944,-22.48032 32.20514,-47.05258 38.29567,-75.06648 3.22356,-14.82702 3.20415,-39.78815 -0.0427,-54.97042 -5.05095,-23.61797 -15.52195,-45.14606 -30.29529,-62.28629 -5.45714,-6.33145 -7.76531,-7.10768 -3.00277,-1.00982 11.88677,15.21957 22.97128,43.05484 26.28158,65.99795 3.69841,25.63306 1.37133,51.12234 -7.06849,77.42329 -6.03763,18.81503 -19.26761,42.16203 -31.64457,55.84333 -3.94913,4.36531 -4.86955,5.7985 -2.89255,4.504 1.59484,-1.04426 6.26097,-5.74026 10.36917,-10.43556 z"
       id="path7" />
    <path
       style="display:inline;fill:#ffffff;fill-opacity:1"
       d="m 751.05773,627.34103 c 1.59856,-6.51257 2.96271,-12.74103 3.03146,-13.84103 0.22179,-3.54886 1.75815,5.73593 2.48205,15 0.88352,11.30682 1.77998,8.89974 3.45913,-9.28809 0.67474,-7.30844 1.38298,-13.1319 1.57387,-12.941 0.1909,0.19089 1.02662,6.80161 1.85716,14.69049 0.83054,7.88887 1.67816,14.51149 1.8836,14.71694 0.54843,0.54843 1.48252,-8.53357 2.27478,-22.11724 0.71934,-12.33353 1.58826,-12.82256 2.77378,-1.5611 0.37635,3.575 1.51405,10.55 2.52822,15.5 l 1.84395,9 0.20732,-17 c 0.2188,-17.94045 0.51122,-18.02325 3.53165,-1 0.97587,5.5 2.133,10.9 2.57142,12 1.0136,2.54319 1.06357,-12.3738 0.0745,-22.23756 -0.8798,-8.77403 -0.0405,-8.24508 2.75724,1.73756 1.15605,4.125 3.20459,10.875 4.55229,15 3.02149,9.24802 3.17509,6.62024 0.68396,-11.70112 -0.98722,-7.26062 -1.4235,-12.97156 -0.96952,-12.69098 0.45398,0.28057 0.84705,1.27108 0.87349,2.20112 0.0662,2.32836 10.80591,29.07611 10.88686,27.11423 0.0358,-0.86721 -1.30813,-8.68151 -2.9865,-17.3651 -2.98207,-15.42881 -3.35622,-20.52692 -0.9449,-12.87515 1.58559,5.03152 12.20294,27.44386 12.74442,26.90239 0.23183,-0.23184 -1.41662,-7.60019 -3.66322,-16.37412 -2.2466,-8.77393 -4.08033,-16.3483 -4.07496,-16.83193 0.005,-0.48364 1.15013,1.59566 2.54391,4.62066 2.96106,6.42657 15.67298,27.92935 16.53596,27.97132 0.3243,0.0158 -2.28065,-7.90387 -5.78878,-17.59921 -3.50812,-9.69534 -6.14855,-17.85775 -5.86761,-18.13869 0.28093,-0.28094 0.97678,0.71484 1.54632,2.21285 1.20497,3.16932 13.52554,21.43476 17.91126,26.55373 2.79554,3.26293 2.63579,2.64585 -2.35856,-9.11052 -2.94647,-6.93579 -6.53484,-15.03579 -7.97415,-18 -2.86237,-5.89494 -2.45149,-5.45396 6.71658,7.20873 6.38897,8.82426 15.7253,19.71933 15.7253,18.35069 0,-0.70266 -6.8921,-14.08246 -14.91193,-28.9489 -3.21425,-5.95828 -3.21712,-5.97614 -0.41241,-2.56916 12.7799,15.52426 23.3145,27.41658 23.82458,26.89517 0.17542,-0.17931 -3.91204,-7.52601 -9.08323,-16.32601 -5.1712,-8.8 -9.40551,-16.35188 -9.40959,-16.78195 -0.004,-0.43007 2.8691,2.49493 6.38484,6.5 6.07081,6.91575 14.8236,15.55024 19.0497,18.79221 1.72273,1.32157 1.84366,1.32041 1.0712,-0.0103 -2.46338,-4.24352 -13.50628,-20.30665 -17.87419,-26 l -4.98676,-6.5 5.92389,5.57525 C 846.63949,584.72293 864.68078,600 865.4679,600 c 0.65994,0 -18.45244,-24.07744 -22.8214,-28.75 -1.67136,-1.7875 -2.58883,-3.25 -2.03883,-3.25 0.55,0 2.55077,1.62543 4.44616,3.61207 5.79386,6.07277 25.54436,21.12307 26.48518,20.18225 0.16478,-0.16477 -5.46946,-6.5984 -12.52052,-14.29695 -7.05106,-7.69856 -12.64251,-14.18211 -12.42543,-14.40791 0.21707,-0.22579 1.18494,0.28715 2.15081,1.13987 2.05101,1.81074 20.92592,14.31607 26.75613,17.72692 2.97259,1.73907 1.68833,0.18667 -5,-6.04393 -4.95,-4.61124 -11.475,-10.74701 -14.5,-13.63506 l -5.5,-5.25099 6.61656,3.4829 c 3.63912,1.91559 11.96412,5.962 18.5,8.99201 13.41277,6.21811 13.30069,6.06189 -6.4942,-9.0511 C 862.31466,555.25254 856.98004,551 857.26765,551 c 0.28761,0 3.83255,1.41315 7.87764,3.14034 9.17942,3.91946 27.05192,9.99579 27.64791,9.39979 0.5408,-0.54079 -16.69532,-11.76176 -26.09489,-16.98816 -6.47025,-3.59763 -8.65695,-5.79601 -3.57754,-3.59666 3.19424,1.38308 34.15978,9.09748 34.62995,8.6273 0.4282,-0.42819 -26.62081,-14.63702 -31.53278,-16.56415 -5.64926,-2.21639 -2.72802,-2.30008 7.46727,-0.21391 5.39814,1.10457 12.96479,2.52628 16.81479,3.15936 3.85,0.63307 8.125,1.40828 9.5,1.72268 7.8471,1.79425 -11.60516,-7.39395 -25,-11.80867 -9.57143,-3.15458 -8.85636,-3.54405 2.63953,-1.43763 7.83266,1.43519 26.36193,2.52219 26.36097,1.54643 -2.7e-4,-0.28231 -6.413,-2.88103 -14.2505,-5.77495 l -14.25,-5.26166 15.74472,0.31966 c 8.65959,0.17582 15.40959,0.003 15,-0.38335 -1.2026,-1.13525 -22.72218,-7.68551 -27.70315,-8.43246 -7.86189,-1.17896 -6.05054,-2.44951 3.64941,-2.55985 5.11996,-0.0582 13.35902,-0.39574 18.30902,-0.75 l 9,-0.64411 -12.90612,-2.87768 c -7.09837,-1.58273 -15.79571,-3.10964 -19.32744,-3.39313 -7.43521,-0.59683 -6.55285,-2.18582 1.23356,-2.22143 2.75,-0.0126 7.7,-0.43665 11,-0.94238 3.3,-0.50573 9.375,-1.23888 13.5,-1.62921 5.11374,-0.4839 6.86366,-0.95213 5.5,-1.47164 -3.31843,-1.26421 -25.60171,-4.35503 -31.68148,-4.3944 -3.12481,-0.0202 -5.14981,-0.37491 -4.5,-0.78815 0.64982,-0.41325 1.85648,-0.74647 2.68148,-0.74049 0.825,0.006 8.15834,-1.43387 16.29632,-3.19964 18.45684,-4.00477 17.49843,-5.05216 -4.77642,-5.21987 L 870.31975,477.5 l 10.09012,-2.59579 c 5.54957,-1.42769 13.46513,-3.67769 17.59013,-5 l 7.5,-2.40421 -12.14025,-0.2799 c -6.67714,-0.15394 -15.34947,0.10339 -19.27185,0.57186 -7.92309,0.94628 -8.10649,0.27029 -0.5879,-2.16689 2.75,-0.89142 10.175,-3.66222 16.5,-6.15733 l 11.5,-4.53657 -9,0.6005 c -4.95,0.33027 -11.86972,1.03853 -15.37716,1.57392 -3.50744,0.53538 -6.56214,0.78845 -6.78821,0.56237 -0.22607,-0.22607 4.53115,-2.59384 10.57162,-5.26171 6.04047,-2.66787 10.85498,-4.97835 10.69893,-5.1344 -0.65316,-0.65316 -23.28586,4.99248 -30.87624,7.70195 -5.31984,1.89898 -7.35671,2.33445 -5.76166,1.23181 35.62326,-24.62625 -25.14457,15.58613 6.62138,-9.96212 10.92237,-8.78448 14.68297,-23.51255 9.0839,-35.57638 -4.59166,-9.89326 -15.37335,-17.63695 -24.58467,-17.65734 C 831.69275,392.9779 817,405.34279 817,417.4891 V 421 h -6.37788 c -10.3751,0 -18.42142,4.38865 -23.29572,12.70601 -2.18635,3.73072 -2.72878,5.92527 -2.77229,11.21612 -0.15392,18.71281 17.43538,30.41788 34.07002,22.67242 6.22884,-2.90029 10.35395,-7.81487 12.44708,-14.82922 l 1.5712,-5.26533 3.06604,3.23505 c 4.34695,4.58657 10.76664,18.29301 13.21055,28.20534 3.7968,15.39955 2.04626,36.34079 -4.35465,52.09351 -9.79688,24.11027 -31.26031,42.95008 -57.56435,50.52785 -4.99353,1.43856 -9.86058,1.87763 -21,1.89447 -16.66532,0.0252 -23.52812,-1.37189 -36.6733,-7.46566 -10.59268,-4.9105 -16.16229,-8.76355 -25.18891,-17.42565 -16.87415,-16.19274 -27.27068,-38.77208 -27.37217,-61.90039 -0.0466,-10.61097 1.20701,-15.81938 2.60286,-21.00071 8.33463,-30.93768 28.27496,-51.92437 60.13152,-63.28691 7.60921,-2.71403 12.51842,-3.366 25.26778,-3.66593 9.12965,-0.21478 16.27364,1.11056 25.95056,4.11572 15.66529,4.883 7.796,4.26758 14.90413,-10.07089 3.025,-6.03167 5.39201,-11.48813 5.06652,-11.40015 -1.09898,0.29706 -12.32465,17.40414 -12.32465,17.40414 0,0 1.23999,-5.29004 4.57038,-13.4406 6.87588,-16.82751 5.53524,-16.07816 -3.89354,2.1763 -3.55235,6.87748 -5.47263,9.32465 -5.59439,9.32465 -0.38331,0 0.13799,-1.89442 4.90866,-15.74706 2.54323,-7.3848 4.43065,-13.62031 4.19428,-13.85668 -0.23638,-0.23638 -3.8081,6.25573 -7.93716,14.42691 -4.12906,8.17118 -6.36769,11.46406 -6.39661,11.01441 -0.0289,-0.44965 0.61522,-3.85637 2.85333,-11.2674 2.23811,-7.41102 3.92561,-13.89392 3.75,-14.40644 -0.26986,-0.7876 -11.89945,23.59039 -11.89945,23.59039 0,0 6.07372,-24.91402 4.69691,-26.29086 -0.3569,-0.35689 -10.15921,24.07797 -10.15921,24.07797 0,0 0.0825,-4.21901 0.12931,-7.86138 0.0708,-5.50722 0.76408,-11.12408 1.05208,-12.49795 0.288,-1.37387 0.22333,-2.19765 -0.14371,-1.83061 -1.7778,1.77782 -8.04632,21.6487 -8.04632,21.6487 0,0 0.94583,-26.35224 -0.44533,-23.70779 -0.4015,0.76321 -2.02906,7.46265 -3.61679,14.88765 l -2.57655,10.08747 -0.96692,-7.91083 c -0.75686,-6.19223 -0.61214,-17.79363 -0.84205,-18.02354 -0.22991,-0.22992 -1.45131,11.28852 -2.42983,17.91833 -0.97853,6.62981 -2.24934,8.32657 -2.44487,8.13105 -0.19552,-0.19553 -1.06984,-2.84364 -2.3221,-10.24516 L 752.37251,372.70793 751.7918,382 c -0.22441,3.59083 -1.031,10.1 -1.39178,14.5 l -1.2764,3.11387 L 747.51649,395 c -4.18542,-12.01585 -5.33828,-21.15512 -6.07714,-21.89398 -0.32518,-0.32518 -0.31159,6.60543 0.0302,15.40137 l -0.23168,11.88206 -4.38233,-11.11616 c -3.24798,-8.23879 -5.39318,-15.06898 -5.58596,-14.8762 -0.33689,0.33688 1.7328,26.59416 1.7328,26.59416 0,0 -1.96163,-2.62779 -5.43645,-10.99125 -2.82379,-6.7965 -5.18217,-13.175 -5.67842,-14 -1.16715,-1.94036 -0.21848,6.55676 2.12129,19 0.98248,5.225 0.85746,7.02494 0.76488,7.12802 -0.0926,0.10308 -2.43579,-3.50757 -6.24987,-11.15183 -3.81408,-7.64426 -7.06687,-13.76646 -7.22843,-13.6049 -0.16156,0.16156 1.29103,6.07616 3.22799,13.14356 1.93696,7.06739 3.39545,13.2287 3.24108,13.69179 -0.27507,0.82523 -11.51799,-17.77772 -13.03593,-21.56974 -0.42432,-1.06 -1.03653,-1.66222 -1.36047,-1.33828 -0.32394,0.32394 1.06366,5.83634 3.08356,12.24977 2.0199,6.41343 3.41962,11.91372 3.11047,12.22286 C 709.25294,406.0804 709,405.86112 709,405.28397 709,404.34664 696.22137,385.99405 693.83215,383.5 c -1.32091,-1.37886 0.0523,2.04437 5.56576,13.87496 2.53115,5.43122 4.60209,10.07907 4.60209,10.32855 0,0.24948 -3.70302,-4.05373 -8.22893,-9.56269 -4.52591,-5.50896 -8.38117,-9.86406 -8.56723,-9.67799 -0.45139,0.45138 4.19908,9.66931 8.40903,16.66798 1.86292,3.09695 3.38713,5.81144 3.38713,6.03221 0,0.22077 -4.61081,-3.96478 -10.24625,-9.30123 -5.63543,-5.33645 -10.37461,-9.57426 -10.53151,-9.41737 -0.32457,0.32458 14.1105,21.13366 16.51372,23.80558 3.23068,3.59189 -0.0413,1.52209 -9.49552,-6.00677 C 673.43946,400.84556 669,397.64518 669,398.5356 c 0,0.56153 10.72509,13.58166 18.40975,22.3492 l 2.09025,2.3848 -4,-2.49906 c -2.2,-1.37448 -8.92628,-5.71015 -14.94729,-9.6348 C 664.5317,407.21108 659.13904,404 658.56902,404 c -0.57002,0 4.12392,5.175 10.43098,11.5 6.30706,6.325 11.08721,11.5 10.62257,11.5 -0.46465,0 -4.5835,-2.25827 -9.153,-5.01838 -9.09531,-5.49383 -19.33043,-10.45409 -20.06189,-9.72263 -0.43865,0.43865 12.03387,11.93239 19.60496,18.06646 4.67207,3.7853 2.40497,3.08206 -14.16275,-4.39318 -7.23138,-3.26275 -13.64339,-5.91398 -14.24892,-5.89163 -1.78074,0.0657 14.38706,13.12194 27.44192,22.16056 1.35141,0.93566 -1.23101,0.19797 -5.7387,-1.6393 -8.64982,-3.52554 -29.291,-9.90843 -29.94081,-9.25861 -0.58326,0.58326 15.14319,10.88473 23.93587,15.67897 4.28959,2.33892 7.64663,4.4052 7.46008,4.59174 -0.18654,0.18654 -7.2962,-1.37722 -15.79925,-3.47502 -18.72465,-4.61958 -23.81677,-5.59472 -22.46008,-4.3011 1.21891,1.16225 24.0685,12.97326 31,16.02399 2.75,1.21034 3.875,1.96756 2.5,1.68272 -6.24301,-1.29329 -34.397,-4.59385 -36.80951,-4.31527 -2.71134,0.31309 6.75465,4.47723 27.30951,12.01361 l 8,2.93318 -7.5,-0.63132 c -14.88395,-1.25286 -33.51472,-1.65927 -32.5,-0.70895 0.55,0.5151 7.94501,2.90925 16.43337,5.32035 l 15.43336,4.38381 -17.14076,0.54073 c -9.42742,0.2974 -17.37642,0.77638 -17.66445,1.06441 -0.28802,0.28803 6.18986,1.61745 14.3953,2.95428 8.20544,1.33682 14.38442,2.71288 13.73108,3.05791 -0.65335,0.34503 -7.7129,0.88765 -15.6879,1.20582 -24.56006,0.97986 -23.55174,2.09815 3.80256,4.21727 l 24.30255,1.8827 -11.30255,1.62485 c -11.2188,1.6128 -31.09176,5.99617 -30.38576,6.70217 0.56901,0.56901 19.58751,3.17273 24.0832,3.2971 4.88552,0.13515 4.44263,0.29646 -13.95484,5.08256 l -12.95483,3.3702 5.45483,0.6511 c 3.00016,0.35811 10.40484,0.73623 16.45484,0.84027 l 11,0.18916 -6.5,1.76741 c -7.4837,2.03489 -23,7.93392 -23,8.7442 0,0.49453 4.74114,0.28064 26.5,-1.19548 l 7,-0.47488 -4.5,1.38827 c -2.475,0.76356 -9.675,3.21265 -16,5.44243 -9.95473,3.5094 -10.96252,4.05753 -7.5,4.07924 2.2,0.0138 8.05,-0.59009 13,-1.34197 4.95,-0.75188 9.12151,-1.25815 9.27002,-1.12505 0.14852,0.13311 -4.94704,2.65447 -11.32347,5.60303 -11.63924,5.38217 -15.09807,7.55311 -9.45572,5.9349 1.66618,-0.47785 6.51236,-1.36324 10.76929,-1.96752 4.25694,-0.60428 8.86488,-1.30509 10.23988,-1.55735 1.375,-0.25226 -2.61849,2.03106 -8.87442,5.07404 -6.25593,3.04298 -11.16198,5.74514 -10.90233,6.00478 0.25965,0.25965 6.24234,-1.10936 13.29488,-3.04224 C 643.57066,548.58145 649.58052,547 649.87338,547 c 0.29286,0 -4.96139,3.44746 -11.6761,7.66102 -6.71472,4.21356 -12.06961,7.79998 -11.89976,7.96983 0.47474,0.47474 17.38351,-5.96734 24.91078,-9.49077 8.89308,-4.16275 9.3697,-3.95958 1.95445,0.83312 -9.1371,5.9056 -22.09442,16.40373 -19.16275,15.52582 1.375,-0.41175 8.35,-3.1503 15.5,-6.08567 7.15,-2.93536 12.1,-4.69542 11,-3.91123 -3.16094,2.25342 -22.31079,19.9233 -22.41031,20.67836 -0.10963,0.83181 22.23241,-9.67576 26.41031,-12.42089 1.65,-1.08414 -2.4,3.28767 -9,9.71514 -7.42363,7.22956 -10.66522,10.92571 -8.5,9.69191 17.28183,-9.84766 21.99219,-12.69659 25.19136,-15.23625 5.81297,-4.61463 5.5309,-3.46091 -0.8267,3.38132 C 664.24096,582.97844 652.64512,597 653.42842,597 c 1.17831,0 24.55972,-17.28117 31.01776,-22.92518 1.9486,-1.70298 1.44069,-0.77583 -1.5,2.73818 -6.32854,7.56234 -20.90698,27.50794 -20.92828,28.63317 -0.01,0.52039 1.4446,-0.40387 3.2321,-2.05391 1.7875,-1.65005 5.40183,-4.70519 8.03185,-6.78922 2.63002,-2.08403 8.68869,-7.45977 13.46372,-11.94609 4.9083,-4.61154 7.82834,-6.84022 6.71815,-5.12754 -1.08005,1.66617 -6.57622,9.8679 -12.21372,18.22607 -5.6375,8.35817 -10.25,15.53649 -10.25,15.95183 0,1.23023 19.74324,-18.75254 24.18928,-24.48274 2.25125,-2.90149 4.25269,-5.11593 4.44764,-4.92098 0.19496,0.19495 -3.3561,7.30213 -7.89123,15.79373 -11.56561,21.65551 -11.91181,22.62428 -5.683,15.90268 8.25185,-8.9047 18.47431,-21.25042 20.49342,-24.75 1.03131,-1.7875 2.20626,-3.25 2.61101,-3.25 0.70359,0 -3.49956,9.40399 -13.40862,30 -2.51383,5.225 -4.4405,9.63487 -4.28149,9.79972 0.619,0.64174 16.22532,-21.08833 19.75748,-27.5101 4.05179,-7.3665 4.87339,-7.18184 1.88363,0.42336 -4.11363,10.46404 -10.23066,28.50781 -9.80781,28.93066 0.95595,0.95595 12.58957,-16.91203 19.62616,-30.14364 2.39977,-4.51255 2.41296,-4.58416 -2.30166,12.5 -3.92806,14.23391 -5.00698,19 -4.30113,19 0.75578,0 7.79967,-13.39574 12.61993,-24 2.37507,-5.225 4.64659,-9.86696 5.04781,-10.31546 0.40123,-0.4485 -0.29374,3.8265 -1.54437,9.5 -1.25062,5.6735 -2.99361,13.91546 -3.87331,18.31546 -0.8797,4.4 -1.85276,9.125 -2.16236,10.5 -1.77702,7.89213 6.52426,-10.74107 12.25152,-27.5 l 2.39221,-7 -0.57957,9 c -0.31877,4.95 -1.00062,13.05 -1.51523,18 -1.19193,11.46514 -1.19781,12.50862 -0.0592,10.5 C 740.01917,636.04531 747,611.53962 747,609.60457 c 0,-0.81759 0.44485,-1.76147 0.98855,-2.09749 0.5437,-0.33603 0.8028,-0.0251 0.57577,0.69098 -0.73712,2.325 -1.75517,32.3223 -1.0739,31.64297 0.36347,-0.36243 1.96876,-5.98743 3.56731,-12.5 z"
       id="path5"
       sodipodi:nodetypes="sssssssssscsssssssssssssscssssssssssssssssssscsssssssssssscssssssssssssssssscscssscssssssssssscsscsssscssssssssssscssssscsssssssssssssscssssssssscscssscsscssssscsscssscsscsssssssssssssssssssssssssscssssssssssssssssssssscssscsssssscsssscsscssscsssssssssssssssssssssssssssssssssssssssssssssssssssssssscssssssss" />
    <path
       style="display:inline;fill:#ffffff;fill-opacity:1"
       d="m 786.5,696.8905 c 8.48585,-1.2324 30.10773,-5.78202 32.94961,-6.93318 3.06228,-1.24043 0.2127,-1.07532 -9.94961,0.57653 -4.95,0.8046 -18.45,1.74914 -30,2.09897 -23.38112,0.70819 -38.16976,-0.33436 -58.96325,-4.1567 -7.12979,-1.31062 -13.10709,-2.23911 -13.2829,-2.06331 -0.45406,0.45407 21.1893,6.33609 31.97969,8.69113 17.68513,3.85983 29.8298,4.31887 47.26646,1.78656 z"
       id="path2" />
    <path
       style="display:inline;fill:#ffffff;fill-opacity:1"
       d="m 991.5,517.46682 c 6.05,-4.51318 19.276,-14.11451 29.3912,-21.3363 25.5193,-18.21972 21.6526,-17.31343 -6.0071,1.40795 -19.21765,13.00745 -55.69405,40.89737 -55.82927,42.6872 -0.0605,0.80117 15.40473,-10.04703 32.44517,-22.75885 z"
       id="path10" />
    <path
       style="display:inline;fill:#f4f4f4;fill-opacity:1"
       d="m 930.45327,473.54438 c -5.04827,-33.19469 -18.40596,-59.90481 -40.41009,-80.80427 -20.84716,-19.80056 -46.76926,-32.75625 -77.34394,-38.65598 -14.48859,-2.79574 -18.69771,-2.52856 -6.19924,0.3935 23.05264,5.38956 46.94484,16.72553 66.5,31.5518 9.48375,7.19035 23.96684,22.32866 30.62853,32.01415 5.52794,8.03711 13.57004,23.49112 17.67056,33.95642 4.69133,11.97315 9.41734,34.39575 9.90618,47 0.11732,3.025 0.37099,1 0.56372,-4.5 0.21343,-6.09073 -0.30093,-14.28284 -1.31572,-20.95562 z"
       id="path11" />
    <path
       style="display:inline;fill:#ffffff;fill-opacity:1"
       d="m 562.96429,543.63855 c -4.12218,-3.83269 -35.79169,-27.92549 -44.94739,-34.19405 -15.53247,-10.63448 -36.70865,-23.08609 -37.6541,-22.14063 -0.17321,0.17321 4.5118,3.56715 10.41113,7.54209 C 496.67327,498.8209 511.85,509.31291 524.5,518.16153 553.64722,538.54989 563.10197,545 563.8406,545 c 0.32338,0 -0.071,-0.61265 -0.87631,-1.36145 z"
       id="path9" />
  </g>
  <g
     inkscape:groupmode="layer"
     id="layer1"
     inkscape:label="Text"
     style="display:none">
    <text
       xml:space="preserve"
       id="text1"
       style="font-style:normal;font-variant:normal;font-weight:normal;font-stretch:normal;font-size:85.3333px;line-height:1.2;font-family:'Zen Dots';-inkscape-font-specification:'Zen Dots, Normal';font-variant-ligatures:normal;font-variant-caps:normal;font-variant-numeric:normal;font-variant-east-asian:normal;text-align:center;writing-mode:lr-tb;direction:ltr;white-space:pre;shape-inside:url(#rect1);display:inline;fill:#000000;fill-opacity:1;fill-rule:evenodd;stroke-width:0.377953;stroke-linecap:round;stroke-miterlimit:5;stroke-dasharray:1.13386, 1.13386"
       transform="matrix(1.0202401,0,0,1.0202401,-14.548909,-16.045472)"><tspan
         x="206.09984"
         y="853.85414"
         id="tspan2">Darkesttimes Design</tspan></text>
  </g>
</svg>
